<?xml version="1.0" encoding="utf-8"?>
<!-- Generator: Adobe Illustrator 19.2.1, SVG Export Plug-In . SVG Version: 6.00 Build 0)  -->
<svg version="1.1" id="图层_1" xmlns="http://www.w3.org/2000/svg" xmlns:xlink="http://www.w3.org/1999/xlink" x="0px" y="0px"
	 viewBox="0 0 48 38" style="enable-background:new 0 0 48 38;" xml:space="preserve">
<style type="text/css">
	.st0{fill:#F44444;}
	.st1{fill:#FFFFFF;}
</style>
<g>
	<path id="形状_20" class="st0" d="M47.7,13.5c0.2-0.1,0.3-0.3,0.3-0.5V6.7C48,3,44.9,0,41.2,0H6.8C3.1,0,0,3,0,6.7v6
		c0,0.2,0.1,0.4,0.4,0.5c2.4,0.8,3.9,3.1,3.9,5.6c0,2.5-1.6,4.7-3.9,5.6C0.1,24.4,0,24.6,0,24.8v6.5C0,35,3.1,38,6.8,38h34.4
		c3.7,0,6.8-3,6.8-6.7v-6.7c0-0.2-0.1-0.4-0.3-0.5c-2.9-1.4-4.2-4.9-2.8-7.8C45.5,15,46.5,14.1,47.7,13.5L47.7,13.5z"/>
	<path id="形状_21" class="st1" d="M18.8,12.3c0.4,0,0.8-0.3,0.8-0.8s-0.3-0.8-0.8-0.8h-4.2c-0.4,0-0.8,0.3-0.8,0.8
		s0.3,0.8,0.8,0.8H18.8z M32.2,12.3c0.4,0,0.8-0.3,0.8-0.8s-0.3-0.8-0.8-0.8H28c-0.4,0-0.8,0.3-0.8,0.8s0.3,0.8,0.8,0.8H32.2z
		 M32.4,25.9c0.2,0,0.3,0,0.4-0.1c0.3-0.2,0.4-0.7,0.2-1c0,0,0,0,0,0l-3.8-5.5h3.1c0.4,0,0.8-0.3,0.8-0.8s-0.3-0.8-0.8-0.8H20l1.4-2
		h11c0.4,0,0.8-0.3,0.8-0.8s-0.3-0.8-0.8-0.8h-10l2.9-4.2c0.2-0.3,0.1-0.8-0.2-1c0,0,0,0,0,0C24.7,8.9,24.2,9,24,9.3l-3.5,5h-6.4
		c-0.4,0-0.8,0.3-0.8,0.8s0.3,0.8,0.8,0.8h5.4l-1.4,2h-4c-0.4,0-0.8,0.3-0.8,0.8s0.3,0.8,0.8,0.8h3l-3.8,5.5c-0.2,0.3-0.1,0.8,0.2,1
		c0,0,0,0,0,0c0.1,0.1,0.3,0.1,0.4,0.1c0.3,0,0.5-0.1,0.6-0.3l4.4-6.3h8.4l4.4,6.3C31.9,25.8,32.2,25.9,32.4,25.9L32.4,25.9
		L32.4,25.9z M25.3,27.2c-0.4,0-0.8,0.3-0.8,0.8s0.3,0.8,0.8,0.8l0,0h2.8c0.4,0,0.8-0.3,0.8-0.7v-6.1c0-0.4-0.4-0.8-0.8-0.7h-9.8
		c-0.4,0-0.8,0.3-0.8,0.8s0.3,0.8,0.8,0.8h1.6l-3.6,5.1c-0.2,0.3-0.1,0.8,0.2,1c0,0,0,0,0,0c0.4,0.2,0.8,0.1,1.1-0.2l4.1-6h5.6v4.6
		L25.3,27.2L25.3,27.2z"/>
</g>
</svg>
